<!DOCTYPE svg PUBLIC "-//W3C//DTD SVG 1.1//EN" "http://www.w3.org/Graphics/SVG/1.1/DTD/svg11.dtd">

<!-- Uploaded to: SVG Repo, www.svgrepo.com, Transformed by: SVG Repo Mixer Tools -->
<svg width="158px" height="158px" viewBox="0 0 24.00 24.00" fill="#800a80" xmlns="http://www.w3.org/2000/svg" stroke="#0a0000" transform="matrix(1, 0, 0, 1, 0, 0)">

<g id="SVGRepo_bgCarrier" stroke-width="0"/>

<g id="SVGRepo_tracerCarrier" stroke-linecap="round" stroke-linejoin="round"/>

<g id="SVGRepo_iconCarrier"> <path opacity="0.1" d="M3 12C3 4.5885 4.5885 3 12 3C19.4115 3 21 4.5885 21 12C21 19.4115 19.4115 21 12 21C4.5885 21 3 19.4115 3 12Z" fill="#ffffff"/> <path d="M3 12C3 4.5885 4.5885 3 12 3C19.4115 3 21 4.5885 21 12C21 19.4115 19.4115 21 12 21C4.5885 21 3 19.4115 3 12Z" stroke="#ffffff" stroke-width="1.344"/> <path d="M8 12L16 12" stroke="#ffffff" stroke-width="1.344" stroke-linecap="round" stroke-linejoin="round"/> <path d="M11 9L8.08704 11.913V11.913C8.03897 11.961 8.03897 12.039 8.08704 12.087V12.087L11 15" stroke="#ffffff" stroke-width="1.344" stroke-linecap="round" stroke-linejoin="round"/> </g>

</svg>